<svg width="13" height="12" viewBox="0 0 13 12" fill="none" xmlns="http://www.w3.org/2000/svg">
<path d="M6.03762 7.25C5.57057 7.25 5.12265 7.43437 4.7924 7.76256C4.46215 8.09075 4.27661 8.53587 4.27661 9C4.27661 9.46413 4.46215 9.90925 4.7924 10.2374C5.12265 10.5656 5.57057 10.75 6.03762 10.75C6.50467 10.75 6.95258 10.5656 7.28284 10.2374C7.61309 9.90925 7.79862 9.46413 7.79862 9C7.79862 8.53587 7.61309 8.09075 7.28284 7.76256C6.95258 7.43437 6.50467 7.25 6.03762 7.25ZM5.2829 9C5.2829 8.80109 5.36242 8.61032 5.50395 8.46967C5.64549 8.32902 5.83745 8.25 6.03762 8.25C6.23778 8.25 6.42975 8.32902 6.57128 8.46967C6.71282 8.61032 6.79233 8.80109 6.79233 9C6.79233 9.19891 6.71282 9.38968 6.57128 9.53033C6.42975 9.67098 6.23778 9.75 6.03762 9.75C5.83745 9.75 5.64549 9.67098 5.50395 9.53033C5.36242 9.38968 5.2829 9.19891 5.2829 9Z" fill="#EAD196"/>
<path d="M8.81804 3.558L7.21854 1.3295L1.33728 5.9985L1.01124 5.995V6H0.754639V12H11.3207V6H10.8367L9.87363 3.2005L8.81804 3.558ZM9.77351 6H4.72797L8.48596 4.727L9.25175 4.4835L9.77351 6ZM7.82382 3.895L3.94458 5.209L7.01678 2.77L7.82382 3.895ZM1.76093 10.0845V7.9145C1.9732 7.83975 2.16601 7.71886 2.3253 7.56065C2.48459 7.40244 2.60635 7.2109 2.68168 7H9.39363C9.46894 7.21098 9.59067 7.4026 9.74996 7.5609C9.90925 7.71919 10.1021 7.84016 10.3144 7.915V10.085C10.1021 10.1598 9.90925 10.2808 9.74996 10.4391C9.59067 10.5974 9.46894 10.789 9.39363 11H2.68269C2.60731 10.7888 2.48544 10.5971 2.32597 10.4387C2.1665 10.2803 1.97346 10.1593 1.76093 10.0845Z" fill="#EAD196"/>
</svg>
